<svg width="254" height="225" viewBox="0 0 254 225" fill="none" xmlns="http://www.w3.org/2000/svg">
<path d="M224.957 118.061C224.956 118.065 224.956 118.069 224.959 118.072C233.544 126.324 247.997 117.427 253.721 124.979C255.087 126.777 251.119 133.311 248.799 133.389C224.127 134.276 225.23 135.798 210.694 122.701L197.975 158.541C197.01 161.256 191.855 165.236 189.319 165.254C186.783 165.278 181.251 160.435 180.771 157.815L167.236 100.492L156.465 140.223C155.919 143.047 151.418 147.95 148.918 149.029C145.999 150.282 138.956 146.236 137.817 143.155L125.817 117.942C121.579 123.99 116.879 133.347 111.52 133.341L83.6774 132.66L80.2247 113.904C74.4164 100.567 60.8815 107.64 51.5485 104.967C35.9337 100.495 32.1573 76.9319 36.5571 63.1211C41.5442 47.4641 55.2889 36.3148 73.0917 35.5595C86.6145 34.9841 98.0335 40.5827 106.347 49.3583C120.506 64.296 116.855 93.3142 107.816 87.5357C106.365 86.6066 103.632 82.4046 103.8 80.4565C105.203 64.1341 94.0413 47.3442 75.3395 47.7518C64.5619 47.9856 55.0132 53.7041 50.4336 61.7304C45.1168 71.0515 46.4475 86.0971 54.3358 92.6848C74.5303 90.2931 92.7886 98.8469 94.9285 120.756L107.816 121.412C115.393 116.173 113.522 106.516 123.838 104.311C127.441 103.543 135.149 108.279 136.594 112.055L146.149 129.829L156.465 93.7189C157.28 89.5649 163.856 83.5706 167.5 83.8464C171.145 84.1221 177.325 90.518 178.134 94.69L190.895 144.79L198.502 120.028C199.725 116.041 206.678 110.083 210.574 110.083C215.518 110.083 220.126 113.408 224.956 118.051C224.958 118.053 224.959 118.058 224.957 118.061Z" fill="#E60F30"/>
<path d="M61.0433 178.037C63.9445 200.21 78.2826 213.577 98.0754 211.97C134.682 208.997 124.899 167.385 129.131 161.031C130.27 159.323 136.57 158.723 137.319 160.636C145.298 180.86 136.564 215.513 105.964 222.988C84.3787 228.257 57.6746 217.018 52.6994 192.825C41.5202 138.475 7.31739 132.738 0.831681 86.0311C-5.53415 40.2051 25.306 3.44828 70.652 0.247346C142.378 -4.81181 163.442 69.3311 151.154 76.794C149.02 78.0888 142.66 74.3843 142.492 71.4411C140.448 36.069 110.795 11.049 75.3155 12.3198C54.5996 13.0631 35.7119 21.5329 24.5926 36.5186C12.0108 53.4823 8.94182 74.4263 15.4215 94.555C26.4748 128.908 57.0812 147.742 61.0493 178.031L61.0433 178.037Z" fill="#E60F30"/>
</svg>